<svg xmlns="http://www.w3.org/2000/svg" id="export" class="canvas" preserveAspectRatio="xMidYMid meet" style="" width="2207" height="109"><rect id="background" fill="#fff" pointer-events="all" width="2207" height="109"/><g id="origin" transform="translate(4.950000381469727, 4.950000381469727) scale(1)"><g id="clusters" class="clusters"/><g id="edge-paths" class="edge-paths" style="pointer-events: none;"><defs><marker id="arrowhead" viewBox="0 0 10 10" refX="9" refY="5" markerUnits="strokeWidth" markerWidth="8" markerHeight="6" orient="auto" style="fill: rgb(0, 0, 0);"><path d="M 0 0 L 10 5 L 0 10 L 4 5 z" style="stroke-width: 1;"/></marker><marker id="arrowhead-select" viewBox="0 0 10 10" refX="9" refY="5" markerUnits="strokeWidth" markerWidth="8" markerHeight="6" orient="auto" style="fill: rgba(220, 0, 0, 0.9);"><path d="M 0 0 L 10 5 L 0 10 L 4 5 z" style="stroke-width: 1;"/></marker><marker id="arrowhead-hover" viewBox="0 0 10 10" refX="9" refY="5" markerUnits="strokeWidth" markerWidth="8" markerHeight="6" orient="auto" style="fill: rgba(220, 0, 0, 0.9);"><path d="M 0 0 L 10 5 L 0 10 L 4 5 z" style="stroke-width: 1;"/></marker></defs><path id="edge-serving_default_input_1:0&#10;0" class="edge-path" d="M49.8125,49.5L51.479166666666664,49.5C53.145833333333336,49.5,56.479166666666664,49.5,64.14322916666667,49.5C71.80729166666667,49.5,83.80208333333333,49.5,95.796875,49.5C107.79166666666667,49.5,119.78645833333333,49.5,127.45052083333333,49.5C135.11458333333334,49.5,138.44791666666666,49.5,140.11458333333334,49.5L141.78125,49.5" style="stroke: rgb(0, 0, 0); stroke-width: 1px; fill: none; marker-end: url(&quot;#arrowhead&quot;);"/><path id="edge-lenet_3/sequential_9/conv2d_9/BiasAdd;lenet_3/sequential_9/conv2d_9/Conv2D;lenet_3/sequential_9/conv2d_9/BiasAdd/ReadVariableOp&#10;12" class="edge-path" d="M231.15625,49.5L237.20353190104166,49.5C243.25081380208334,49.5,255.34537760416666,49.5,267.43994140625,49.5C279.5345052083333,49.5,291.6290690104167,49.5,297.6763509114583,49.5L303.7236328125,49.5" style="stroke: rgb(0, 0, 0); stroke-width: 1px; fill: none; marker-end: url(&quot;#arrowhead&quot;);"/><path id="edge-lenet_3/sequential_9/conv2d_9/Tanh&#10;13" class="edge-path" d="M341.3017578125,49.5L347.3490397135417,49.5C353.3963216145833,49.5,365.4908854166667,49.5,377.58544921875,49.5C389.6800130208333,49.5,401.7745768229167,49.5,407.8218587239583,49.5L413.869140625,49.5" style="stroke: rgb(0, 0, 0); stroke-width: 1px; fill: none; marker-end: url(&quot;#arrowhead&quot;);"/><path id="edge-lenet_3/sequential_9/average_pooling2d_6/AvgPool&#10;14" class="edge-path" d="M503.65869140625,49.5L509.7059733072917,49.5C515.7532552083334,49.5,527.8478190104166,49.5,539.9423828125,49.5C552.0369466145834,49.5,564.1315104166666,49.5,570.1787923177084,49.5L576.22607421875,49.5" style="stroke: rgb(0, 0, 0); stroke-width: 1px; fill: none; marker-end: url(&quot;#arrowhead&quot;);"/><path id="edge-lenet_3/sequential_9/activation_6/Sigmoid&#10;15" class="edge-path" d="M627.13232421875,49.5L633.1796061197916,49.5C639.2268880208334,49.5,651.3214518229166,49.5,663.416015625,49.5C675.5105794270834,49.5,687.6051432291666,49.5,693.6524251302084,49.5L699.69970703125,49.5" style="stroke: rgb(0, 0, 0); stroke-width: 1px; fill: none; marker-end: url(&quot;#arrowhead&quot;);"/><path id="edge-lenet_3/sequential_10/conv2d_10/BiasAdd;lenet_3/sequential_10/conv2d_10/Conv2D;lenet_3/sequential_10/conv2d_10/BiasAdd/ReadVariableOp&#10;16" class="edge-path" d="M793.91845703125,49.5L800.4149576822916,49.5C806.9114583333334,49.5,819.9044596354166,49.5,832.8974609375,49.5C845.8904622395834,49.5,858.8834635416666,49.5,865.3799641927084,49.5L871.87646484375,49.5" style="stroke: rgb(0, 0, 0); stroke-width: 1px; fill: none; marker-end: url(&quot;#arrowhead&quot;);"/><path id="edge-lenet_3/sequential_10/conv2d_10/Tanh&#10;17" class="edge-path" d="M909.45458984375,49.5L915.9510904947916,49.5C922.4475911458334,49.5,935.4405924479166,49.5,948.43359375,49.5C961.4265950520834,49.5,974.4195963541666,49.5,980.9160970052084,49.5L987.41259765625,49.5" style="stroke: rgb(0, 0, 0); stroke-width: 1px; fill: none; marker-end: url(&quot;#arrowhead&quot;);"/><path id="edge-lenet_3/sequential_10/average_pooling2d_7/AvgPool&#10;18" class="edge-path" d="M1077.2021484375,49.5L1082.8002115885417,49.5C1088.3982747395833,49.5,1099.5944010416667,49.5,1110.79052734375,49.5C1121.9866536458333,49.5,1133.1827799479167,49.5,1138.7808430989583,49.5L1144.37890625,49.5" style="stroke: rgb(0, 0, 0); stroke-width: 1px; fill: none; marker-end: url(&quot;#arrowhead&quot;);"/><path id="edge-lenet_3/sequential_10/activation_7/Sigmoid&#10;19" class="edge-path" d="M1195.28515625,49.5L1200.8832194010417,49.5C1206.4812825520833,49.5,1217.6774088541667,49.5,1228.87353515625,49.5C1240.0696614583333,49.5,1251.2657877604167,49.5,1256.8638509114583,49.5L1262.4619140625,49.5" style="stroke: rgb(0, 0, 0); stroke-width: 1px; fill: none; marker-end: url(&quot;#arrowhead&quot;);"/><path id="edge-lenet_3/sequential_11/conv2d_11/BiasAdd;lenet_3/sequential_11/conv2d_11/Conv2D;lenet_3/sequential_11/conv2d_11/BiasAdd/ReadVariableOp&#10;20" class="edge-path" d="M1366.3837890625,49.5L1372.4310709635417,49.5C1378.4783528645833,49.5,1390.5729166666667,49.5,1402.66748046875,49.5C1414.7620442708333,49.5,1426.8566080729167,49.5,1432.9038899739583,49.5L1438.951171875,49.5" style="stroke: rgb(0, 0, 0); stroke-width: 1px; fill: none; marker-end: url(&quot;#arrowhead&quot;);"/><path id="edge-lenet_3/sequential_11/conv2d_11/Tanh&#10;21" class="edge-path" d="M1476.529296875,49.5L1482.5765787760417,49.5C1488.6238606770833,49.5,1500.7184244791667,49.5,1512.81298828125,49.5C1524.9075520833333,49.5,1537.0021158854167,49.5,1543.0493977864583,49.5L1549.0966796875,49.5" style="stroke: rgb(0, 0, 0); stroke-width: 1px; fill: none; marker-end: url(&quot;#arrowhead&quot;);"/><path id="edge-lenet_3/sequential_11/flatten_3/Reshape&#10;22" class="edge-path" d="M1624.0966796875,49.5L1628.1053873697917,49.5C1632.1140950520833,49.5,1640.1315104166667,49.5,1648.14892578125,49.5C1656.1663411458333,49.5,1664.1837565104167,49.5,1668.1924641927083,49.5L1672.201171875,49.5" style="stroke: rgb(0, 0, 0); stroke-width: 1px; fill: none; marker-end: url(&quot;#arrowhead&quot;);"/><path id="edge-lenet_3/dense_6/MatMul;lenet_3/dense_6/BiasAdd&#10;23" class="edge-path" d="M1766.638671875,49.5L1770.1981608072917,49.5C1773.7576497395833,49.5,1780.8766276041667,49.5,1787.99560546875,49.5C1795.1145833333333,49.5,1802.2335611979167,49.5,1805.7930501302083,49.5L1809.3525390625,49.5" style="stroke: rgb(0, 0, 0); stroke-width: 1px; fill: none; marker-end: url(&quot;#arrowhead&quot;);"/><path id="edge-lenet_3/dense_6/Tanh&#10;24" class="edge-path" d="M1846.9306640625,49.5L1850.4901529947917,49.5C1854.0496419270833,49.5,1861.1686197916667,49.5,1868.28759765625,49.5C1875.4065755208333,49.5,1882.5255533854167,49.5,1886.0850423177083,49.5L1889.64453125,49.5" style="stroke: rgb(0, 0, 0); stroke-width: 1px; fill: none; marker-end: url(&quot;#arrowhead&quot;);"/><path id="edge-lenet_3/dense_7/MatMul;lenet_3/dense_7/BiasAdd&#10;25" class="edge-path" d="M1979.23828125,49.5L1982.7977701822917,49.5C1986.3572591145833,49.5,1993.4762369791667,49.5,2000.59521484375,49.5C2007.7141927083333,49.5,2014.8331705729167,49.5,2018.3926595052083,49.5L2021.9521484375,49.5" style="stroke: rgb(0, 0, 0); stroke-width: 1px; fill: none; marker-end: url(&quot;#arrowhead&quot;);"/><path id="edge-StatefulPartitionedCall:0&#10;26" class="edge-path" d="M2096.9521484375,49.5L2100.5116373697915,49.5C2104.0711263020835,49.5,2111.1901041666665,49.5,2118.30908203125,49.5C2125.4280598958335,49.5,2132.5470377604165,49.5,2136.1065266927085,49.5L2139.666015625,49.5" style="stroke: rgb(0, 0, 0); stroke-width: 1px; fill: none; marker-end: url(&quot;#arrowhead&quot;);"/></g><g id="edge-labels" class="edge-labels"><text class="edge-label" id="edge-label-edge-serving_default_input_1:0&#10;0" transform="translate(69.8125,59.5)" style="opacity: 1; font-family: -apple-system, BlinkMacSystemFont, &quot;Segoe WPC&quot;, &quot;Segoe UI&quot;, Ubuntu, &quot;Droid Sans&quot;, sans-serif, &quot;PingFang SC&quot;; font-size: 10px;"><tspan xml:space="preserve" dy="1em" x="1">?×32×32×1</tspan></text><text class="edge-label" id="edge-label-edge-lenet_3/sequential_9/conv2d_9/BiasAdd;lenet_3/sequential_9/conv2d_9/Conv2D;lenet_3/sequential_9/conv2d_9/BiasAdd/ReadVariableOp&#10;12" transform="translate(241.15625,59.5)" style="opacity: 1; font-family: -apple-system, BlinkMacSystemFont, &quot;Segoe WPC&quot;, &quot;Segoe UI&quot;, Ubuntu, &quot;Droid Sans&quot;, sans-serif, &quot;PingFang SC&quot;; font-size: 10px;"><tspan xml:space="preserve" dy="1em" x="1">?×28×28×6</tspan></text><text class="edge-label" id="edge-label-edge-lenet_3/sequential_9/conv2d_9/Tanh&#10;13" transform="translate(351.3017578125,59.5)" style="opacity: 1; font-family: -apple-system, BlinkMacSystemFont, &quot;Segoe WPC&quot;, &quot;Segoe UI&quot;, Ubuntu, &quot;Droid Sans&quot;, sans-serif, &quot;PingFang SC&quot;; font-size: 10px;"><tspan xml:space="preserve" dy="1em" x="1">?×28×28×6</tspan></text><text class="edge-label" id="edge-label-edge-lenet_3/sequential_9/average_pooling2d_6/AvgPool&#10;14" transform="translate(513.65869140625,59.5)" style="opacity: 1; font-family: -apple-system, BlinkMacSystemFont, &quot;Segoe WPC&quot;, &quot;Segoe UI&quot;, Ubuntu, &quot;Droid Sans&quot;, sans-serif, &quot;PingFang SC&quot;; font-size: 10px;"><tspan xml:space="preserve" dy="1em" x="1">?×14×14×6</tspan></text><text class="edge-label" id="edge-label-edge-lenet_3/sequential_9/activation_6/Sigmoid&#10;15" transform="translate(637.13232421875,59.5)" style="opacity: 1; font-family: -apple-system, BlinkMacSystemFont, &quot;Segoe WPC&quot;, &quot;Segoe UI&quot;, Ubuntu, &quot;Droid Sans&quot;, sans-serif, &quot;PingFang SC&quot;; font-size: 10px;"><tspan xml:space="preserve" dy="1em" x="1">?×14×14×6</tspan></text><text class="edge-label" id="edge-label-edge-lenet_3/sequential_10/conv2d_10/BiasAdd;lenet_3/sequential_10/conv2d_10/Conv2D;lenet_3/sequential_10/conv2d_10/BiasAdd/ReadVariableOp&#10;16" transform="translate(803.91845703125,59.5)" style="opacity: 1; font-family: -apple-system, BlinkMacSystemFont, &quot;Segoe WPC&quot;, &quot;Segoe UI&quot;, Ubuntu, &quot;Droid Sans&quot;, sans-serif, &quot;PingFang SC&quot;; font-size: 10px;"><tspan xml:space="preserve" dy="1em" x="1">?×10×10×16</tspan></text><text class="edge-label" id="edge-label-edge-lenet_3/sequential_10/conv2d_10/Tanh&#10;17" transform="translate(919.45458984375,59.5)" style="opacity: 1; font-family: -apple-system, BlinkMacSystemFont, &quot;Segoe WPC&quot;, &quot;Segoe UI&quot;, Ubuntu, &quot;Droid Sans&quot;, sans-serif, &quot;PingFang SC&quot;; font-size: 10px;"><tspan xml:space="preserve" dy="1em" x="1">?×10×10×16</tspan></text><text class="edge-label" id="edge-label-edge-lenet_3/sequential_10/average_pooling2d_7/AvgPool&#10;18" transform="translate(1087.2021484375,59.5)" style="opacity: 1; font-family: -apple-system, BlinkMacSystemFont, &quot;Segoe WPC&quot;, &quot;Segoe UI&quot;, Ubuntu, &quot;Droid Sans&quot;, sans-serif, &quot;PingFang SC&quot;; font-size: 10px;"><tspan xml:space="preserve" dy="1em" x="1">?×5×5×16</tspan></text><text class="edge-label" id="edge-label-edge-lenet_3/sequential_10/activation_7/Sigmoid&#10;19" transform="translate(1205.28515625,59.5)" style="opacity: 1; font-family: -apple-system, BlinkMacSystemFont, &quot;Segoe WPC&quot;, &quot;Segoe UI&quot;, Ubuntu, &quot;Droid Sans&quot;, sans-serif, &quot;PingFang SC&quot;; font-size: 10px;"><tspan xml:space="preserve" dy="1em" x="1">?×5×5×16</tspan></text><text class="edge-label" id="edge-label-edge-lenet_3/sequential_11/conv2d_11/BiasAdd;lenet_3/sequential_11/conv2d_11/Conv2D;lenet_3/sequential_11/conv2d_11/BiasAdd/ReadVariableOp&#10;20" transform="translate(1376.3837890625,59.5)" style="opacity: 1; font-family: -apple-system, BlinkMacSystemFont, &quot;Segoe WPC&quot;, &quot;Segoe UI&quot;, Ubuntu, &quot;Droid Sans&quot;, sans-serif, &quot;PingFang SC&quot;; font-size: 10px;"><tspan xml:space="preserve" dy="1em" x="1">?×1×1×120</tspan></text><text class="edge-label" id="edge-label-edge-lenet_3/sequential_11/conv2d_11/Tanh&#10;21" transform="translate(1486.529296875,59.5)" style="opacity: 1; font-family: -apple-system, BlinkMacSystemFont, &quot;Segoe WPC&quot;, &quot;Segoe UI&quot;, Ubuntu, &quot;Droid Sans&quot;, sans-serif, &quot;PingFang SC&quot;; font-size: 10px;"><tspan xml:space="preserve" dy="1em" x="1">?×1×1×120</tspan></text><text class="edge-label" id="edge-label-edge-lenet_3/sequential_11/flatten_3/Reshape&#10;22" transform="translate(1634.0966796875,59.5)" style="opacity: 1; font-family: -apple-system, BlinkMacSystemFont, &quot;Segoe WPC&quot;, &quot;Segoe UI&quot;, Ubuntu, &quot;Droid Sans&quot;, sans-serif, &quot;PingFang SC&quot;; font-size: 10px;"><tspan xml:space="preserve" dy="1em" x="1">?×120</tspan></text><text class="edge-label" id="edge-label-edge-lenet_3/dense_6/MatMul;lenet_3/dense_6/BiasAdd&#10;23" transform="translate(1776.638671875,59.5)" style="opacity: 1; font-family: -apple-system, BlinkMacSystemFont, &quot;Segoe WPC&quot;, &quot;Segoe UI&quot;, Ubuntu, &quot;Droid Sans&quot;, sans-serif, &quot;PingFang SC&quot;; font-size: 10px;"><tspan xml:space="preserve" dy="1em" x="1">?×84</tspan></text><text class="edge-label" id="edge-label-edge-lenet_3/dense_6/Tanh&#10;24" transform="translate(1856.9306640625,59.5)" style="opacity: 1; font-family: -apple-system, BlinkMacSystemFont, &quot;Segoe WPC&quot;, &quot;Segoe UI&quot;, Ubuntu, &quot;Droid Sans&quot;, sans-serif, &quot;PingFang SC&quot;; font-size: 10px;"><tspan xml:space="preserve" dy="1em" x="1">?×84</tspan></text><text class="edge-label" id="edge-label-edge-lenet_3/dense_7/MatMul;lenet_3/dense_7/BiasAdd&#10;25" transform="translate(1989.23828125,59.5)" style="opacity: 1; font-family: -apple-system, BlinkMacSystemFont, &quot;Segoe WPC&quot;, &quot;Segoe UI&quot;, Ubuntu, &quot;Droid Sans&quot;, sans-serif, &quot;PingFang SC&quot;; font-size: 10px;"><tspan xml:space="preserve" dy="1em" x="1">?×10</tspan></text><text class="edge-label" id="edge-label-edge-StatefulPartitionedCall:0&#10;26" transform="translate(2106.9521484375,59.5)" style="opacity: 1; font-family: -apple-system, BlinkMacSystemFont, &quot;Segoe WPC&quot;, &quot;Segoe UI&quot;, Ubuntu, &quot;Droid Sans&quot;, sans-serif, &quot;PingFang SC&quot;; font-size: 10px;"><tspan xml:space="preserve" dy="1em" x="1">?×10</tspan></text></g><g id="nodes" class="nodes"><g id="input-name-input_1" class="node graph-input" transform="translate(0,38)" style=""><g class="node-item graph-item-input" transform="translate(0,0)"><path d="M5,0h39.8125a5,5 0 0 1 5,5v13a5,5 0 0 1 -5,5h-39.8125a5,5 0 0 1 -5,-5v-13a5,5 0 0 1 5,-5z" style="stroke: rgb(0, 0, 0); fill: rgb(238, 238, 238); stroke-width: 0;"/><text x="6" y="16" style="font-family: -apple-system, BlinkMacSystemFont, &quot;Segoe WPC&quot;, &quot;Segoe UI&quot;, Ubuntu, &quot;Droid Sans&quot;, sans-serif, &quot;PingFang SC&quot;; font-size: 11px; text-rendering: geometricprecision; user-select: none;">input_1</text><title>int8[-1,32,32,1]</title></g><path class="node node-border" d="M5,0h39.8125a5,5 0 0 1 5,5v13a5,5 0 0 1 -5,5h-39.8125a5,5 0 0 1 -5,-5v-13a5,5 0 0 1 5,-5z" style="stroke: rgb(51, 51, 51); fill: none; stroke-width: 1px;"/></g><g id="node-id-0" class="node graph-node" transform="translate(141.78125,0)" style=""><g class="node-item node-item-type node-item-type-layer" transform="translate(0,0)"><path d="M5,0h79.375a5,5 0 0 1 5,5v18a0,0 0 0 1 0,0h-89.375a0,0 0 0 1 0,0v-18a5,5 0 0 1 5,-5z" style="stroke: rgb(0, 0, 0); fill: rgb(51, 85, 136); stroke-width: 0;"/><text x="6" y="16" style="font-family: -apple-system, BlinkMacSystemFont, &quot;Segoe WPC&quot;, &quot;Segoe UI&quot;, Ubuntu, &quot;Droid Sans&quot;, sans-serif, &quot;PingFang SC&quot;; font-size: 11px; text-rendering: geometricprecision; user-select: none; fill: rgb(255, 255, 255);">Conv2D</text><title>0</title></g><g class="node-argument-list" transform="translate(0,23)"><path d="M0,0h89.375a0,0 0 0 1 0,0v71a5,5 0 0 1 -5,5h-79.375a5,5 0 0 1 -5,-5v-71a0,0 0 0 1 0,0z" style="stroke: rgb(0, 0, 0); fill: rgb(255, 255, 255); stroke-width: 0;"/><g class="node-argument"><rect rx="3" ry="3" x="3" y="3" width="83.375" height="14" style="fill: transparent;"/><text xml:space="preserve" x="6" y="14" style="font-family: -apple-system, BlinkMacSystemFont, &quot;Segoe WPC&quot;, &quot;Segoe UI&quot;, Ubuntu, &quot;Droid Sans&quot;, sans-serif, &quot;PingFang SC&quot;; font-size: 9px; font-weight: normal; text-rendering: geometricprecision; user-select: none;"><title>int8[6,5,5,1]</title><tspan style="font-weight: bold;">filter</tspan><tspan>〈6×5×5×1〉</tspan></text></g><g class="node-argument"><rect rx="3" ry="3" x="3" y="17" width="83.375" height="14" style="fill: transparent;"/><text xml:space="preserve" x="6" y="28" style="font-family: -apple-system, BlinkMacSystemFont, &quot;Segoe WPC&quot;, &quot;Segoe UI&quot;, Ubuntu, &quot;Droid Sans&quot;, sans-serif, &quot;PingFang SC&quot;; font-size: 9px; font-weight: normal; text-rendering: geometricprecision; user-select: none;"><title>int32[6]</title><tspan style="font-weight: bold;">bias</tspan><tspan>〈6〉</tspan></text></g><g class="node-argument"><rect rx="3" ry="3" x="3" y="31" width="83.375" height="14" style="fill: transparent;"/><text xml:space="preserve" x="6" y="42" style="font-family: -apple-system, BlinkMacSystemFont, &quot;Segoe WPC&quot;, &quot;Segoe UI&quot;, Ubuntu, &quot;Droid Sans&quot;, sans-serif, &quot;PingFang SC&quot;; font-size: 9px; font-weight: normal; text-rendering: geometricprecision; user-select: none;"><title>Padding</title><tspan>padding</tspan><tspan> = VALID</tspan></text></g><g class="node-argument"><rect rx="3" ry="3" x="3" y="45" width="83.375" height="14" style="fill: transparent;"/><text xml:space="preserve" x="6" y="56" style="font-family: -apple-system, BlinkMacSystemFont, &quot;Segoe WPC&quot;, &quot;Segoe UI&quot;, Ubuntu, &quot;Droid Sans&quot;, sans-serif, &quot;PingFang SC&quot;; font-size: 9px; font-weight: normal; text-rendering: geometricprecision; user-select: none;"><title>int32</title><tspan>stride_h</tspan><tspan> = 1</tspan></text></g><g class="node-argument"><rect rx="3" ry="3" x="3" y="59" width="83.375" height="14" style="fill: transparent;"/><text xml:space="preserve" x="6" y="70" style="font-family: -apple-system, BlinkMacSystemFont, &quot;Segoe WPC&quot;, &quot;Segoe UI&quot;, Ubuntu, &quot;Droid Sans&quot;, sans-serif, &quot;PingFang SC&quot;; font-size: 9px; font-weight: normal; text-rendering: geometricprecision; user-select: none;"><title>int32</title><tspan>stride_w</tspan><tspan> = 1</tspan></text></g><line class="node" x1="0" x2="89.375" y1="0" y2="0" style="stroke: rgb(51, 51, 51); fill: none; stroke-width: 1px;"/></g><path class="node node-border" d="M5,0h79.375a5,5 0 0 1 5,5v89a5,5 0 0 1 -5,5h-79.375a5,5 0 0 1 -5,-5v-89a5,5 0 0 1 5,-5z" style="stroke: rgb(51, 51, 51); fill: none; stroke-width: 1px;"/></g><g id="node-id-1" class="node graph-node" transform="translate(303.7236328125,38)" style=""><g class="node-item node-item-type node-item-type-activation" transform="translate(0,0)"><path d="M5,0h27.578125a5,5 0 0 1 5,5v13a5,5 0 0 1 -5,5h-27.578125a5,5 0 0 1 -5,-5v-13a5,5 0 0 1 5,-5z" style="stroke: rgb(0, 0, 0); fill: rgb(112, 41, 33); stroke-width: 0;"/><text x="6" y="16" style="font-family: -apple-system, BlinkMacSystemFont, &quot;Segoe WPC&quot;, &quot;Segoe UI&quot;, Ubuntu, &quot;Droid Sans&quot;, sans-serif, &quot;PingFang SC&quot;; font-size: 11px; text-rendering: geometricprecision; user-select: none; fill: rgb(255, 255, 255);">Tanh</text><title>1</title></g><path class="node node-border" d="M5,0h27.578125a5,5 0 0 1 5,5v13a5,5 0 0 1 -5,5h-27.578125a5,5 0 0 1 -5,-5v-13a5,5 0 0 1 5,-5z" style="stroke: rgb(51, 51, 51); fill: none; stroke-width: 1px;"/></g><g id="node-id-2" class="node graph-node" transform="translate(413.869140625,0)" style=""><g class="node-item node-item-type node-item-type-pool" transform="translate(0,0)"><path d="M5,0h79.78955078125a5,5 0 0 1 5,5v18a0,0 0 0 1 0,0h-89.78955078125a0,0 0 0 1 0,0v-18a5,5 0 0 1 5,-5z" style="stroke: rgb(0, 0, 0); fill: rgb(51, 85, 51); stroke-width: 0;"/><text x="6" y="16" style="font-family: -apple-system, BlinkMacSystemFont, &quot;Segoe WPC&quot;, &quot;Segoe UI&quot;, Ubuntu, &quot;Droid Sans&quot;, sans-serif, &quot;PingFang SC&quot;; font-size: 11px; text-rendering: geometricprecision; user-select: none; fill: rgb(255, 255, 255);">AveragePool2D</text><title>2</title></g><g class="node-argument-list" transform="translate(0,23)"><path d="M0,0h89.78955078125a0,0 0 0 1 0,0v71a5,5 0 0 1 -5,5h-79.78955078125a5,5 0 0 1 -5,-5v-71a0,0 0 0 1 0,0z" style="stroke: rgb(0, 0, 0); fill: rgb(255, 255, 255); stroke-width: 0;"/><g class="node-argument"><rect rx="3" ry="3" x="3" y="3" width="83.78955078125" height="14" style="fill: transparent;"/><text xml:space="preserve" x="6" y="14" style="font-family: -apple-system, BlinkMacSystemFont, &quot;Segoe WPC&quot;, &quot;Segoe UI&quot;, Ubuntu, &quot;Droid Sans&quot;, sans-serif, &quot;PingFang SC&quot;; font-size: 9px; font-weight: normal; text-rendering: geometricprecision; user-select: none;"><title>int32</title><tspan>filter_height</tspan><tspan> = 2</tspan></text></g><g class="node-argument"><rect rx="3" ry="3" x="3" y="17" width="83.78955078125" height="14" style="fill: transparent;"/><text xml:space="preserve" x="6" y="28" style="font-family: -apple-system, BlinkMacSystemFont, &quot;Segoe WPC&quot;, &quot;Segoe UI&quot;, Ubuntu, &quot;Droid Sans&quot;, sans-serif, &quot;PingFang SC&quot;; font-size: 9px; font-weight: normal; text-rendering: geometricprecision; user-select: none;"><title>int32</title><tspan>filter_width</tspan><tspan> = 2</tspan></text></g><g class="node-argument"><rect rx="3" ry="3" x="3" y="31" width="83.78955078125" height="14" style="fill: transparent;"/><text xml:space="preserve" x="6" y="42" style="font-family: -apple-system, BlinkMacSystemFont, &quot;Segoe WPC&quot;, &quot;Segoe UI&quot;, Ubuntu, &quot;Droid Sans&quot;, sans-serif, &quot;PingFang SC&quot;; font-size: 9px; font-weight: normal; text-rendering: geometricprecision; user-select: none;"><title>Padding</title><tspan>padding</tspan><tspan> = VALID</tspan></text></g><g class="node-argument"><rect rx="3" ry="3" x="3" y="45" width="83.78955078125" height="14" style="fill: transparent;"/><text xml:space="preserve" x="6" y="56" style="font-family: -apple-system, BlinkMacSystemFont, &quot;Segoe WPC&quot;, &quot;Segoe UI&quot;, Ubuntu, &quot;Droid Sans&quot;, sans-serif, &quot;PingFang SC&quot;; font-size: 9px; font-weight: normal; text-rendering: geometricprecision; user-select: none;"><title>int32</title><tspan>stride_h</tspan><tspan> = 2</tspan></text></g><g class="node-argument"><rect rx="3" ry="3" x="3" y="59" width="83.78955078125" height="14" style="fill: transparent;"/><text xml:space="preserve" x="6" y="70" style="font-family: -apple-system, BlinkMacSystemFont, &quot;Segoe WPC&quot;, &quot;Segoe UI&quot;, Ubuntu, &quot;Droid Sans&quot;, sans-serif, &quot;PingFang SC&quot;; font-size: 9px; font-weight: normal; text-rendering: geometricprecision; user-select: none;"><title>int32</title><tspan>stride_w</tspan><tspan> = 2</tspan></text></g><line class="node" x1="0" x2="89.78955078125" y1="0" y2="0" style="stroke: rgb(51, 51, 51); fill: none; stroke-width: 1px;"/></g><path class="node node-border" d="M5,0h79.78955078125a5,5 0 0 1 5,5v89a5,5 0 0 1 -5,5h-79.78955078125a5,5 0 0 1 -5,-5v-89a5,5 0 0 1 5,-5z" style="stroke: rgb(51, 51, 51); fill: none; stroke-width: 1px;"/></g><g id="node-id-3" class="node graph-node" transform="translate(576.22607421875,38)" style=""><g class="node-item node-item-type" transform="translate(0,0)"><path d="M5,0h40.90625a5,5 0 0 1 5,5v13a5,5 0 0 1 -5,5h-40.90625a5,5 0 0 1 -5,-5v-13a5,5 0 0 1 5,-5z" style="stroke: rgb(0, 0, 0); fill: rgb(0, 0, 0); stroke-width: 0;"/><text x="6" y="16" style="font-family: -apple-system, BlinkMacSystemFont, &quot;Segoe WPC&quot;, &quot;Segoe UI&quot;, Ubuntu, &quot;Droid Sans&quot;, sans-serif, &quot;PingFang SC&quot;; font-size: 11px; text-rendering: geometricprecision; user-select: none; fill: rgb(255, 255, 255);">Logistic</text><title>3</title></g><path class="node node-border" d="M5,0h40.90625a5,5 0 0 1 5,5v13a5,5 0 0 1 -5,5h-40.90625a5,5 0 0 1 -5,-5v-13a5,5 0 0 1 5,-5z" style="stroke: rgb(51, 51, 51); fill: none; stroke-width: 1px;"/></g><g id="node-id-4" class="node graph-node" transform="translate(699.69970703125,0)" style=""><g class="node-item node-item-type node-item-type-layer" transform="translate(0,0)"><path d="M5,0h84.21875a5,5 0 0 1 5,5v18a0,0 0 0 1 0,0h-94.21875a0,0 0 0 1 0,0v-18a5,5 0 0 1 5,-5z" style="stroke: rgb(0, 0, 0); fill: rgb(51, 85, 136); stroke-width: 0;"/><text x="6" y="16" style="font-family: -apple-system, BlinkMacSystemFont, &quot;Segoe WPC&quot;, &quot;Segoe UI&quot;, Ubuntu, &quot;Droid Sans&quot;, sans-serif, &quot;PingFang SC&quot;; font-size: 11px; text-rendering: geometricprecision; user-select: none; fill: rgb(255, 255, 255);">Conv2D</text><title>4</title></g><g class="node-argument-list" transform="translate(0,23)"><path d="M0,0h94.21875a0,0 0 0 1 0,0v71a5,5 0 0 1 -5,5h-84.21875a5,5 0 0 1 -5,-5v-71a0,0 0 0 1 0,0z" style="stroke: rgb(0, 0, 0); fill: rgb(255, 255, 255); stroke-width: 0;"/><g class="node-argument"><rect rx="3" ry="3" x="3" y="3" width="88.21875" height="14" style="fill: transparent;"/><text xml:space="preserve" x="6" y="14" style="font-family: -apple-system, BlinkMacSystemFont, &quot;Segoe WPC&quot;, &quot;Segoe UI&quot;, Ubuntu, &quot;Droid Sans&quot;, sans-serif, &quot;PingFang SC&quot;; font-size: 9px; font-weight: normal; text-rendering: geometricprecision; user-select: none;"><title>int8[16,5,5,6]</title><tspan style="font-weight: bold;">filter</tspan><tspan>〈16×5×5×6〉</tspan></text></g><g class="node-argument"><rect rx="3" ry="3" x="3" y="17" width="88.21875" height="14" style="fill: transparent;"/><text xml:space="preserve" x="6" y="28" style="font-family: -apple-system, BlinkMacSystemFont, &quot;Segoe WPC&quot;, &quot;Segoe UI&quot;, Ubuntu, &quot;Droid Sans&quot;, sans-serif, &quot;PingFang SC&quot;; font-size: 9px; font-weight: normal; text-rendering: geometricprecision; user-select: none;"><title>int32[16]</title><tspan style="font-weight: bold;">bias</tspan><tspan>〈16〉</tspan></text></g><g class="node-argument"><rect rx="3" ry="3" x="3" y="31" width="88.21875" height="14" style="fill: transparent;"/><text xml:space="preserve" x="6" y="42" style="font-family: -apple-system, BlinkMacSystemFont, &quot;Segoe WPC&quot;, &quot;Segoe UI&quot;, Ubuntu, &quot;Droid Sans&quot;, sans-serif, &quot;PingFang SC&quot;; font-size: 9px; font-weight: normal; text-rendering: geometricprecision; user-select: none;"><title>Padding</title><tspan>padding</tspan><tspan> = VALID</tspan></text></g><g class="node-argument"><rect rx="3" ry="3" x="3" y="45" width="88.21875" height="14" style="fill: transparent;"/><text xml:space="preserve" x="6" y="56" style="font-family: -apple-system, BlinkMacSystemFont, &quot;Segoe WPC&quot;, &quot;Segoe UI&quot;, Ubuntu, &quot;Droid Sans&quot;, sans-serif, &quot;PingFang SC&quot;; font-size: 9px; font-weight: normal; text-rendering: geometricprecision; user-select: none;"><title>int32</title><tspan>stride_h</tspan><tspan> = 1</tspan></text></g><g class="node-argument"><rect rx="3" ry="3" x="3" y="59" width="88.21875" height="14" style="fill: transparent;"/><text xml:space="preserve" x="6" y="70" style="font-family: -apple-system, BlinkMacSystemFont, &quot;Segoe WPC&quot;, &quot;Segoe UI&quot;, Ubuntu, &quot;Droid Sans&quot;, sans-serif, &quot;PingFang SC&quot;; font-size: 9px; font-weight: normal; text-rendering: geometricprecision; user-select: none;"><title>int32</title><tspan>stride_w</tspan><tspan> = 1</tspan></text></g><line class="node" x1="0" x2="94.21875" y1="0" y2="0" style="stroke: rgb(51, 51, 51); fill: none; stroke-width: 1px;"/></g><path class="node node-border" d="M5,0h84.21875a5,5 0 0 1 5,5v89a5,5 0 0 1 -5,5h-84.21875a5,5 0 0 1 -5,-5v-89a5,5 0 0 1 5,-5z" style="stroke: rgb(51, 51, 51); fill: none; stroke-width: 1px;"/></g><g id="node-id-5" class="node graph-node" transform="translate(871.87646484375,38)" style=""><g class="node-item node-item-type node-item-type-activation" transform="translate(0,0)"><path d="M5,0h27.578125a5,5 0 0 1 5,5v13a5,5 0 0 1 -5,5h-27.578125a5,5 0 0 1 -5,-5v-13a5,5 0 0 1 5,-5z" style="stroke: rgb(0, 0, 0); fill: rgb(112, 41, 33); stroke-width: 0;"/><text x="6" y="16" style="font-family: -apple-system, BlinkMacSystemFont, &quot;Segoe WPC&quot;, &quot;Segoe UI&quot;, Ubuntu, &quot;Droid Sans&quot;, sans-serif, &quot;PingFang SC&quot;; font-size: 11px; text-rendering: geometricprecision; user-select: none; fill: rgb(255, 255, 255);">Tanh</text><title>5</title></g><path class="node node-border" d="M5,0h27.578125a5,5 0 0 1 5,5v13a5,5 0 0 1 -5,5h-27.578125a5,5 0 0 1 -5,-5v-13a5,5 0 0 1 5,-5z" style="stroke: rgb(51, 51, 51); fill: none; stroke-width: 1px;"/></g><g id="node-id-6" class="node graph-node" transform="translate(987.41259765625,0)" style=""><g class="node-item node-item-type node-item-type-pool" transform="translate(0,0)"><path d="M5,0h79.78955078125a5,5 0 0 1 5,5v18a0,0 0 0 1 0,0h-89.78955078125a0,0 0 0 1 0,0v-18a5,5 0 0 1 5,-5z" style="stroke: rgb(0, 0, 0); fill: rgb(51, 85, 51); stroke-width: 0;"/><text x="6" y="16" style="font-family: -apple-system, BlinkMacSystemFont, &quot;Segoe WPC&quot;, &quot;Segoe UI&quot;, Ubuntu, &quot;Droid Sans&quot;, sans-serif, &quot;PingFang SC&quot;; font-size: 11px; text-rendering: geometricprecision; user-select: none; fill: rgb(255, 255, 255);">AveragePool2D</text><title>6</title></g><g class="node-argument-list" transform="translate(0,23)"><path d="M0,0h89.78955078125a0,0 0 0 1 0,0v71a5,5 0 0 1 -5,5h-79.78955078125a5,5 0 0 1 -5,-5v-71a0,0 0 0 1 0,0z" style="stroke: rgb(0, 0, 0); fill: rgb(255, 255, 255); stroke-width: 0;"/><g class="node-argument"><rect rx="3" ry="3" x="3" y="3" width="83.78955078125" height="14" style="fill: transparent;"/><text xml:space="preserve" x="6" y="14" style="font-family: -apple-system, BlinkMacSystemFont, &quot;Segoe WPC&quot;, &quot;Segoe UI&quot;, Ubuntu, &quot;Droid Sans&quot;, sans-serif, &quot;PingFang SC&quot;; font-size: 9px; font-weight: normal; text-rendering: geometricprecision; user-select: none;"><title>int32</title><tspan>filter_height</tspan><tspan> = 2</tspan></text></g><g class="node-argument"><rect rx="3" ry="3" x="3" y="17" width="83.78955078125" height="14" style="fill: transparent;"/><text xml:space="preserve" x="6" y="28" style="font-family: -apple-system, BlinkMacSystemFont, &quot;Segoe WPC&quot;, &quot;Segoe UI&quot;, Ubuntu, &quot;Droid Sans&quot;, sans-serif, &quot;PingFang SC&quot;; font-size: 9px; font-weight: normal; text-rendering: geometricprecision; user-select: none;"><title>int32</title><tspan>filter_width</tspan><tspan> = 2</tspan></text></g><g class="node-argument"><rect rx="3" ry="3" x="3" y="31" width="83.78955078125" height="14" style="fill: transparent;"/><text xml:space="preserve" x="6" y="42" style="font-family: -apple-system, BlinkMacSystemFont, &quot;Segoe WPC&quot;, &quot;Segoe UI&quot;, Ubuntu, &quot;Droid Sans&quot;, sans-serif, &quot;PingFang SC&quot;; font-size: 9px; font-weight: normal; text-rendering: geometricprecision; user-select: none;"><title>Padding</title><tspan>padding</tspan><tspan> = VALID</tspan></text></g><g class="node-argument"><rect rx="3" ry="3" x="3" y="45" width="83.78955078125" height="14" style="fill: transparent;"/><text xml:space="preserve" x="6" y="56" style="font-family: -apple-system, BlinkMacSystemFont, &quot;Segoe WPC&quot;, &quot;Segoe UI&quot;, Ubuntu, &quot;Droid Sans&quot;, sans-serif, &quot;PingFang SC&quot;; font-size: 9px; font-weight: normal; text-rendering: geometricprecision; user-select: none;"><title>int32</title><tspan>stride_h</tspan><tspan> = 2</tspan></text></g><g class="node-argument"><rect rx="3" ry="3" x="3" y="59" width="83.78955078125" height="14" style="fill: transparent;"/><text xml:space="preserve" x="6" y="70" style="font-family: -apple-system, BlinkMacSystemFont, &quot;Segoe WPC&quot;, &quot;Segoe UI&quot;, Ubuntu, &quot;Droid Sans&quot;, sans-serif, &quot;PingFang SC&quot;; font-size: 9px; font-weight: normal; text-rendering: geometricprecision; user-select: none;"><title>int32</title><tspan>stride_w</tspan><tspan> = 2</tspan></text></g><line class="node" x1="0" x2="89.78955078125" y1="0" y2="0" style="stroke: rgb(51, 51, 51); fill: none; stroke-width: 1px;"/></g><path class="node node-border" d="M5,0h79.78955078125a5,5 0 0 1 5,5v89a5,5 0 0 1 -5,5h-79.78955078125a5,5 0 0 1 -5,-5v-89a5,5 0 0 1 5,-5z" style="stroke: rgb(51, 51, 51); fill: none; stroke-width: 1px;"/></g><g id="node-id-7" class="node graph-node" transform="translate(1144.37890625,38)" style=""><g class="node-item node-item-type" transform="translate(0,0)"><path d="M5,0h40.90625a5,5 0 0 1 5,5v13a5,5 0 0 1 -5,5h-40.90625a5,5 0 0 1 -5,-5v-13a5,5 0 0 1 5,-5z" style="stroke: rgb(0, 0, 0); fill: rgb(0, 0, 0); stroke-width: 0;"/><text x="6" y="16" style="font-family: -apple-system, BlinkMacSystemFont, &quot;Segoe WPC&quot;, &quot;Segoe UI&quot;, Ubuntu, &quot;Droid Sans&quot;, sans-serif, &quot;PingFang SC&quot;; font-size: 11px; text-rendering: geometricprecision; user-select: none; fill: rgb(255, 255, 255);">Logistic</text><title>7</title></g><path class="node node-border" d="M5,0h40.90625a5,5 0 0 1 5,5v13a5,5 0 0 1 -5,5h-40.90625a5,5 0 0 1 -5,-5v-13a5,5 0 0 1 5,-5z" style="stroke: rgb(51, 51, 51); fill: none; stroke-width: 1px;"/></g><g id="node-id-8" class="node graph-node" transform="translate(1262.4619140625,0)" style=""><g class="node-item node-item-type node-item-type-layer" transform="translate(0,0)"><path d="M5,0h93.921875a5,5 0 0 1 5,5v18a0,0 0 0 1 0,0h-103.921875a0,0 0 0 1 0,0v-18a5,5 0 0 1 5,-5z" style="stroke: rgb(0, 0, 0); fill: rgb(51, 85, 136); stroke-width: 0;"/><text x="6" y="16" style="font-family: -apple-system, BlinkMacSystemFont, &quot;Segoe WPC&quot;, &quot;Segoe UI&quot;, Ubuntu, &quot;Droid Sans&quot;, sans-serif, &quot;PingFang SC&quot;; font-size: 11px; text-rendering: geometricprecision; user-select: none; fill: rgb(255, 255, 255);">Conv2D</text><title>8</title></g><g class="node-argument-list" transform="translate(0,23)"><path d="M0,0h103.921875a0,0 0 0 1 0,0v71a5,5 0 0 1 -5,5h-93.921875a5,5 0 0 1 -5,-5v-71a0,0 0 0 1 0,0z" style="stroke: rgb(0, 0, 0); fill: rgb(255, 255, 255); stroke-width: 0;"/><g class="node-argument"><rect rx="3" ry="3" x="3" y="3" width="97.921875" height="14" style="fill: transparent;"/><text xml:space="preserve" x="6" y="14" style="font-family: -apple-system, BlinkMacSystemFont, &quot;Segoe WPC&quot;, &quot;Segoe UI&quot;, Ubuntu, &quot;Droid Sans&quot;, sans-serif, &quot;PingFang SC&quot;; font-size: 9px; font-weight: normal; text-rendering: geometricprecision; user-select: none;"><title>int8[120,5,5,16]</title><tspan style="font-weight: bold;">filter</tspan><tspan>〈120×5×5×16〉</tspan></text></g><g class="node-argument"><rect rx="3" ry="3" x="3" y="17" width="97.921875" height="14" style="fill: transparent;"/><text xml:space="preserve" x="6" y="28" style="font-family: -apple-system, BlinkMacSystemFont, &quot;Segoe WPC&quot;, &quot;Segoe UI&quot;, Ubuntu, &quot;Droid Sans&quot;, sans-serif, &quot;PingFang SC&quot;; font-size: 9px; font-weight: normal; text-rendering: geometricprecision; user-select: none;"><title>int32[120]</title><tspan style="font-weight: bold;">bias</tspan><tspan>〈120〉</tspan></text></g><g class="node-argument"><rect rx="3" ry="3" x="3" y="31" width="97.921875" height="14" style="fill: transparent;"/><text xml:space="preserve" x="6" y="42" style="font-family: -apple-system, BlinkMacSystemFont, &quot;Segoe WPC&quot;, &quot;Segoe UI&quot;, Ubuntu, &quot;Droid Sans&quot;, sans-serif, &quot;PingFang SC&quot;; font-size: 9px; font-weight: normal; text-rendering: geometricprecision; user-select: none;"><title>Padding</title><tspan>padding</tspan><tspan> = VALID</tspan></text></g><g class="node-argument"><rect rx="3" ry="3" x="3" y="45" width="97.921875" height="14" style="fill: transparent;"/><text xml:space="preserve" x="6" y="56" style="font-family: -apple-system, BlinkMacSystemFont, &quot;Segoe WPC&quot;, &quot;Segoe UI&quot;, Ubuntu, &quot;Droid Sans&quot;, sans-serif, &quot;PingFang SC&quot;; font-size: 9px; font-weight: normal; text-rendering: geometricprecision; user-select: none;"><title>int32</title><tspan>stride_h</tspan><tspan> = 1</tspan></text></g><g class="node-argument"><rect rx="3" ry="3" x="3" y="59" width="97.921875" height="14" style="fill: transparent;"/><text xml:space="preserve" x="6" y="70" style="font-family: -apple-system, BlinkMacSystemFont, &quot;Segoe WPC&quot;, &quot;Segoe UI&quot;, Ubuntu, &quot;Droid Sans&quot;, sans-serif, &quot;PingFang SC&quot;; font-size: 9px; font-weight: normal; text-rendering: geometricprecision; user-select: none;"><title>int32</title><tspan>stride_w</tspan><tspan> = 1</tspan></text></g><line class="node" x1="0" x2="103.921875" y1="0" y2="0" style="stroke: rgb(51, 51, 51); fill: none; stroke-width: 1px;"/></g><path class="node node-border" d="M5,0h93.921875a5,5 0 0 1 5,5v89a5,5 0 0 1 -5,5h-93.921875a5,5 0 0 1 -5,-5v-89a5,5 0 0 1 5,-5z" style="stroke: rgb(51, 51, 51); fill: none; stroke-width: 1px;"/></g><g id="node-id-9" class="node graph-node" transform="translate(1438.951171875,38)" style=""><g class="node-item node-item-type node-item-type-activation" transform="translate(0,0)"><path d="M5,0h27.578125a5,5 0 0 1 5,5v13a5,5 0 0 1 -5,5h-27.578125a5,5 0 0 1 -5,-5v-13a5,5 0 0 1 5,-5z" style="stroke: rgb(0, 0, 0); fill: rgb(112, 41, 33); stroke-width: 0;"/><text x="6" y="16" style="font-family: -apple-system, BlinkMacSystemFont, &quot;Segoe WPC&quot;, &quot;Segoe UI&quot;, Ubuntu, &quot;Droid Sans&quot;, sans-serif, &quot;PingFang SC&quot;; font-size: 11px; text-rendering: geometricprecision; user-select: none; fill: rgb(255, 255, 255);">Tanh</text><title>9</title></g><path class="node node-border" d="M5,0h27.578125a5,5 0 0 1 5,5v13a5,5 0 0 1 -5,5h-27.578125a5,5 0 0 1 -5,-5v-13a5,5 0 0 1 5,-5z" style="stroke: rgb(51, 51, 51); fill: none; stroke-width: 1px;"/></g><g id="node-id-10" class="node graph-node" transform="translate(1549.0966796875,28)" style=""><g class="node-item node-item-type node-item-type-shape" transform="translate(0,0)"><path d="M5,0h65a5,5 0 0 1 5,5v18a0,0 0 0 1 0,0h-75a0,0 0 0 1 0,0v-18a5,5 0 0 1 5,-5z" style="stroke: rgb(0, 0, 0); fill: rgb(108, 79, 71); stroke-width: 0;"/><text x="6" y="16" style="font-family: -apple-system, BlinkMacSystemFont, &quot;Segoe WPC&quot;, &quot;Segoe UI&quot;, Ubuntu, &quot;Droid Sans&quot;, sans-serif, &quot;PingFang SC&quot;; font-size: 11px; text-rendering: geometricprecision; user-select: none; fill: rgb(255, 255, 255);">Reshape</text><title>10</title></g><g class="node-argument-list" transform="translate(0,23)"><path d="M0,0h75a0,0 0 0 1 0,0v15a5,5 0 0 1 -5,5h-65a5,5 0 0 1 -5,-5v-15a0,0 0 0 1 0,0z" style="stroke: rgb(0, 0, 0); fill: rgb(255, 255, 255); stroke-width: 0;"/><g class="node-argument"><rect rx="3" ry="3" x="3" y="3" width="69" height="14" style="fill: transparent;"/><text xml:space="preserve" x="6" y="14" style="font-family: -apple-system, BlinkMacSystemFont, &quot;Segoe WPC&quot;, &quot;Segoe UI&quot;, Ubuntu, &quot;Droid Sans&quot;, sans-serif, &quot;PingFang SC&quot;; font-size: 9px; font-weight: normal; text-rendering: geometricprecision; user-select: none;"><title>int32[2]</title><tspan style="font-weight: bold;">shape</tspan><tspan>〈2〉</tspan></text></g><line class="node" x1="0" x2="75" y1="0" y2="0" style="stroke: rgb(51, 51, 51); fill: none; stroke-width: 1px;"/></g><path class="node node-border" d="M5,0h65a5,5 0 0 1 5,5v33a5,5 0 0 1 -5,5h-65a5,5 0 0 1 -5,-5v-33a5,5 0 0 1 5,-5z" style="stroke: rgb(51, 51, 51); fill: none; stroke-width: 1px;"/></g><g id="node-id-11" class="node graph-node" transform="translate(1672.201171875,21)" style=""><g class="node-item node-item-type node-item-type-layer" transform="translate(0,0)"><path d="M5,0h84.4375a5,5 0 0 1 5,5v18a0,0 0 0 1 0,0h-94.4375a0,0 0 0 1 0,0v-18a5,5 0 0 1 5,-5z" style="stroke: rgb(0, 0, 0); fill: rgb(51, 85, 136); stroke-width: 0;"/><text x="6" y="16" style="font-family: -apple-system, BlinkMacSystemFont, &quot;Segoe WPC&quot;, &quot;Segoe UI&quot;, Ubuntu, &quot;Droid Sans&quot;, sans-serif, &quot;PingFang SC&quot;; font-size: 11px; text-rendering: geometricprecision; user-select: none; fill: rgb(255, 255, 255);">FullyConnected</text><title>11</title></g><g class="node-argument-list" transform="translate(0,23)"><path d="M0,0h94.4375a0,0 0 0 1 0,0v29a5,5 0 0 1 -5,5h-84.4375a5,5 0 0 1 -5,-5v-29a0,0 0 0 1 0,0z" style="stroke: rgb(0, 0, 0); fill: rgb(255, 255, 255); stroke-width: 0;"/><g class="node-argument"><rect rx="3" ry="3" x="3" y="3" width="88.4375" height="14" style="fill: transparent;"/><text xml:space="preserve" x="6" y="14" style="font-family: -apple-system, BlinkMacSystemFont, &quot;Segoe WPC&quot;, &quot;Segoe UI&quot;, Ubuntu, &quot;Droid Sans&quot;, sans-serif, &quot;PingFang SC&quot;; font-size: 9px; font-weight: normal; text-rendering: geometricprecision; user-select: none;"><title>int8[84,120]</title><tspan style="font-weight: bold;">weights</tspan><tspan>〈84×120〉</tspan></text></g><g class="node-argument"><rect rx="3" ry="3" x="3" y="17" width="88.4375" height="14" style="fill: transparent;"/><text xml:space="preserve" x="6" y="28" style="font-family: -apple-system, BlinkMacSystemFont, &quot;Segoe WPC&quot;, &quot;Segoe UI&quot;, Ubuntu, &quot;Droid Sans&quot;, sans-serif, &quot;PingFang SC&quot;; font-size: 9px; font-weight: normal; text-rendering: geometricprecision; user-select: none;"><title>int32[84]</title><tspan style="font-weight: bold;">bias</tspan><tspan>〈84〉</tspan></text></g><line class="node" x1="0" x2="94.4375" y1="0" y2="0" style="stroke: rgb(51, 51, 51); fill: none; stroke-width: 1px;"/></g><path class="node node-border" d="M5,0h84.4375a5,5 0 0 1 5,5v47a5,5 0 0 1 -5,5h-84.4375a5,5 0 0 1 -5,-5v-47a5,5 0 0 1 5,-5z" style="stroke: rgb(51, 51, 51); fill: none; stroke-width: 1px;"/></g><g id="node-id-12" class="node graph-node" transform="translate(1809.3525390625,38)" style=""><g class="node-item node-item-type node-item-type-activation" transform="translate(0,0)"><path d="M5,0h27.578125a5,5 0 0 1 5,5v13a5,5 0 0 1 -5,5h-27.578125a5,5 0 0 1 -5,-5v-13a5,5 0 0 1 5,-5z" style="stroke: rgb(0, 0, 0); fill: rgb(112, 41, 33); stroke-width: 0;"/><text x="6" y="16" style="font-family: -apple-system, BlinkMacSystemFont, &quot;Segoe WPC&quot;, &quot;Segoe UI&quot;, Ubuntu, &quot;Droid Sans&quot;, sans-serif, &quot;PingFang SC&quot;; font-size: 11px; text-rendering: geometricprecision; user-select: none; fill: rgb(255, 255, 255);">Tanh</text><title>12</title></g><path class="node node-border" d="M5,0h27.578125a5,5 0 0 1 5,5v13a5,5 0 0 1 -5,5h-27.578125a5,5 0 0 1 -5,-5v-13a5,5 0 0 1 5,-5z" style="stroke: rgb(51, 51, 51); fill: none; stroke-width: 1px;"/></g><g id="node-id-13" class="node graph-node" transform="translate(1889.64453125,21)" style=""><g class="node-item node-item-type node-item-type-layer" transform="translate(0,0)"><path d="M5,0h79.59375a5,5 0 0 1 5,5v18a0,0 0 0 1 0,0h-89.59375a0,0 0 0 1 0,0v-18a5,5 0 0 1 5,-5z" style="stroke: rgb(0, 0, 0); fill: rgb(51, 85, 136); stroke-width: 0;"/><text x="6" y="16" style="font-family: -apple-system, BlinkMacSystemFont, &quot;Segoe WPC&quot;, &quot;Segoe UI&quot;, Ubuntu, &quot;Droid Sans&quot;, sans-serif, &quot;PingFang SC&quot;; font-size: 11px; text-rendering: geometricprecision; user-select: none; fill: rgb(255, 255, 255);">FullyConnected</text><title>13</title></g><g class="node-argument-list" transform="translate(0,23)"><path d="M0,0h89.59375a0,0 0 0 1 0,0v29a5,5 0 0 1 -5,5h-79.59375a5,5 0 0 1 -5,-5v-29a0,0 0 0 1 0,0z" style="stroke: rgb(0, 0, 0); fill: rgb(255, 255, 255); stroke-width: 0;"/><g class="node-argument"><rect rx="3" ry="3" x="3" y="3" width="83.59375" height="14" style="fill: transparent;"/><text xml:space="preserve" x="6" y="14" style="font-family: -apple-system, BlinkMacSystemFont, &quot;Segoe WPC&quot;, &quot;Segoe UI&quot;, Ubuntu, &quot;Droid Sans&quot;, sans-serif, &quot;PingFang SC&quot;; font-size: 9px; font-weight: normal; text-rendering: geometricprecision; user-select: none;"><title>int8[10,84]</title><tspan style="font-weight: bold;">weights</tspan><tspan>〈10×84〉</tspan></text></g><g class="node-argument"><rect rx="3" ry="3" x="3" y="17" width="83.59375" height="14" style="fill: transparent;"/><text xml:space="preserve" x="6" y="28" style="font-family: -apple-system, BlinkMacSystemFont, &quot;Segoe WPC&quot;, &quot;Segoe UI&quot;, Ubuntu, &quot;Droid Sans&quot;, sans-serif, &quot;PingFang SC&quot;; font-size: 9px; font-weight: normal; text-rendering: geometricprecision; user-select: none;"><title>int32[10]</title><tspan style="font-weight: bold;">bias</tspan><tspan>〈10〉</tspan></text></g><line class="node" x1="0" x2="89.59375" y1="0" y2="0" style="stroke: rgb(51, 51, 51); fill: none; stroke-width: 1px;"/></g><path class="node node-border" d="M5,0h79.59375a5,5 0 0 1 5,5v47a5,5 0 0 1 -5,5h-79.59375a5,5 0 0 1 -5,-5v-47a5,5 0 0 1 5,-5z" style="stroke: rgb(51, 51, 51); fill: none; stroke-width: 1px;"/></g><g id="node-id-14" class="node graph-node" transform="translate(2021.9521484375,28)" style=""><g class="node-item node-item-type node-item-type-activation" transform="translate(0,0)"><path d="M5,0h65a5,5 0 0 1 5,5v18a0,0 0 0 1 0,0h-75a0,0 0 0 1 0,0v-18a5,5 0 0 1 5,-5z" style="stroke: rgb(0, 0, 0); fill: rgb(112, 41, 33); stroke-width: 0;"/><text x="6" y="16" style="font-family: -apple-system, BlinkMacSystemFont, &quot;Segoe WPC&quot;, &quot;Segoe UI&quot;, Ubuntu, &quot;Droid Sans&quot;, sans-serif, &quot;PingFang SC&quot;; font-size: 11px; text-rendering: geometricprecision; user-select: none; fill: rgb(255, 255, 255);">Softmax</text><title>14</title></g><g class="node-argument-list" transform="translate(0,23)"><path d="M0,0h75a0,0 0 0 1 0,0v15a5,5 0 0 1 -5,5h-65a5,5 0 0 1 -5,-5v-15a0,0 0 0 1 0,0z" style="stroke: rgb(0, 0, 0); fill: rgb(255, 255, 255); stroke-width: 0;"/><g class="node-argument"><rect rx="3" ry="3" x="3" y="3" width="69" height="14" style="fill: transparent;"/><text xml:space="preserve" x="6" y="14" style="font-family: -apple-system, BlinkMacSystemFont, &quot;Segoe WPC&quot;, &quot;Segoe UI&quot;, Ubuntu, &quot;Droid Sans&quot;, sans-serif, &quot;PingFang SC&quot;; font-size: 9px; font-weight: normal; text-rendering: geometricprecision; user-select: none;"><title>float32</title><tspan>beta</tspan><tspan> = 1</tspan></text></g><line class="node" x1="0" x2="75" y1="0" y2="0" style="stroke: rgb(51, 51, 51); fill: none; stroke-width: 1px;"/></g><path class="node node-border" d="M5,0h65a5,5 0 0 1 5,5v33a5,5 0 0 1 -5,5h-65a5,5 0 0 1 -5,-5v-33a5,5 0 0 1 5,-5z" style="stroke: rgb(51, 51, 51); fill: none; stroke-width: 1px;"/></g><g class="node" transform="translate(2139.666015625,38)" style=""><g class="node-item graph-item-output" transform="translate(0,0)"><path d="M5,0h47.3125a5,5 0 0 1 5,5v13a5,5 0 0 1 -5,5h-47.3125a5,5 0 0 1 -5,-5v-13a5,5 0 0 1 5,-5z" style="stroke: rgb(0, 0, 0); fill: rgb(238, 238, 238); stroke-width: 0;"/><text x="6" y="16" style="font-family: -apple-system, BlinkMacSystemFont, &quot;Segoe WPC&quot;, &quot;Segoe UI&quot;, Ubuntu, &quot;Droid Sans&quot;, sans-serif, &quot;PingFang SC&quot;; font-size: 11px; text-rendering: geometricprecision; user-select: none;">output_1</text><title>int8[-1,10]</title></g><path class="node node-border" d="M5,0h47.3125a5,5 0 0 1 5,5v13a5,5 0 0 1 -5,5h-47.3125a5,5 0 0 1 -5,-5v-13a5,5 0 0 1 5,-5z" style="stroke: rgb(51, 51, 51); fill: none; stroke-width: 1px;"/></g></g></g></svg>